<svg xmlns="http://www.w3.org/2000/svg" xmlns:xlink="http://www.w3.org/1999/xlink" width="512" zoomAndPan="magnify" viewBox="0 0 384 383.999986" height="512" preserveAspectRatio="xMidYMid meet" version="1.2"><defs><clipPath id="67bd712e29"><path d="M 49.648438 49.648438 L 334.34375 49.648438 L 334.34375 334.34375 L 49.648438 334.34375 Z M 49.648438 49.648438 "/></clipPath><clipPath id="3f15606cb0"><path d="M 191.996094 49.648438 C 113.382812 49.648438 49.648438 113.382812 49.648438 191.996094 C 49.648438 270.613281 113.382812 334.34375 191.996094 334.34375 C 270.613281 334.34375 334.34375 270.613281 334.34375 191.996094 C 334.34375 113.382812 270.613281 49.648438 191.996094 49.648438 Z M 191.996094 49.648438 "/></clipPath><linearGradient x1="0.000000119423" gradientTransform="matrix(5.931153,0,0,5.931153,-0.000000708317,0.00000595835)" y1="32" x2="63.999996" gradientUnits="userSpaceOnUse" y2="32" id="99a9c6aa32"><stop style="stop-color:#f79b72;stop-opacity:1;" offset="0"/><stop style="stop-color:#f79b72;stop-opacity:1;" offset="0.015625"/><stop style="stop-color:#f79a71;stop-opacity:1;" offset="0.03125"/><stop style="stop-color:#f69a71;stop-opacity:1;" offset="0.046875"/><stop style="stop-color:#f69a70;stop-opacity:1;" offset="0.0625"/><stop style="stop-color:#f69970;stop-opacity:1;" offset="0.078125"/><stop style="stop-color:#f6996f;stop-opacity:1;" offset="0.09375"/><stop style="stop-color:#f5986e;stop-opacity:1;" offset="0.109375"/><stop style="stop-color:#f5986e;stop-opacity:1;" offset="0.125"/><stop style="stop-color:#f5976d;stop-opacity:1;" offset="0.140625"/><stop style="stop-color:#f5976d;stop-opacity:1;" offset="0.15625"/><stop style="stop-color:#f4976c;stop-opacity:1;" offset="0.171875"/><stop style="stop-color:#f4966c;stop-opacity:1;" offset="0.1875"/><stop style="stop-color:#f4966b;stop-opacity:1;" offset="0.203125"/><stop style="stop-color:#f3956b;stop-opacity:1;" offset="0.21875"/><stop style="stop-color:#f3956a;stop-opacity:1;" offset="0.234375"/><stop style="stop-color:#f3946a;stop-opacity:1;" offset="0.25"/><stop style="stop-color:#f39469;stop-opacity:1;" offset="0.265625"/><stop style="stop-color:#f29468;stop-opacity:1;" offset="0.28125"/><stop style="stop-color:#f29368;stop-opacity:1;" offset="0.296875"/><stop style="stop-color:#f29367;stop-opacity:1;" offset="0.3125"/><stop style="stop-color:#f29267;stop-opacity:1;" offset="0.328125"/><stop style="stop-color:#f19266;stop-opacity:1;" offset="0.34375"/><stop style="stop-color:#f19266;stop-opacity:1;" offset="0.359375"/><stop style="stop-color:#f19165;stop-opacity:1;" offset="0.375"/><stop style="stop-color:#f19165;stop-opacity:1;" offset="0.390625"/><stop style="stop-color:#f09064;stop-opacity:1;" offset="0.40625"/><stop style="stop-color:#f09064;stop-opacity:1;" offset="0.421875"/><stop style="stop-color:#f08f63;stop-opacity:1;" offset="0.4375"/><stop style="stop-color:#ef8f62;stop-opacity:1;" offset="0.453125"/><stop style="stop-color:#ef8f62;stop-opacity:1;" offset="0.46875"/><stop style="stop-color:#ef8e61;stop-opacity:1;" offset="0.484375"/><stop style="stop-color:#ef8e61;stop-opacity:1;" offset="0.5"/><stop style="stop-color:#ee8d60;stop-opacity:1;" offset="0.515625"/><stop style="stop-color:#ee8d60;stop-opacity:1;" offset="0.53125"/><stop style="stop-color:#ee8c5f;stop-opacity:1;" offset="0.546875"/><stop style="stop-color:#ee8c5f;stop-opacity:1;" offset="0.5625"/><stop style="stop-color:#ed8c5e;stop-opacity:1;" offset="0.578125"/><stop style="stop-color:#ed8b5e;stop-opacity:1;" offset="0.59375"/><stop style="stop-color:#ed8b5d;stop-opacity:1;" offset="0.609375"/><stop style="stop-color:#ed8a5c;stop-opacity:1;" offset="0.625"/><stop style="stop-color:#ec8a5c;stop-opacity:1;" offset="0.640625"/><stop style="stop-color:#ec8a5b;stop-opacity:1;" offset="0.65625"/><stop style="stop-color:#ec895b;stop-opacity:1;" offset="0.671875"/><stop style="stop-color:#eb895a;stop-opacity:1;" offset="0.6875"/><stop style="stop-color:#eb885a;stop-opacity:1;" offset="0.703125"/><stop style="stop-color:#eb8859;stop-opacity:1;" offset="0.71875"/><stop style="stop-color:#eb8759;stop-opacity:1;" offset="0.734375"/><stop style="stop-color:#ea8758;stop-opacity:1;" offset="0.75"/><stop style="stop-color:#ea8758;stop-opacity:1;" offset="0.765625"/><stop style="stop-color:#ea8657;stop-opacity:1;" offset="0.78125"/><stop style="stop-color:#ea8656;stop-opacity:1;" offset="0.796875"/><stop style="stop-color:#e98556;stop-opacity:1;" offset="0.8125"/><stop style="stop-color:#e98555;stop-opacity:1;" offset="0.828125"/><stop style="stop-color:#e98455;stop-opacity:1;" offset="0.84375"/><stop style="stop-color:#e98454;stop-opacity:1;" offset="0.859375"/><stop style="stop-color:#e88454;stop-opacity:1;" offset="0.875"/><stop style="stop-color:#e88353;stop-opacity:1;" offset="0.890625"/><stop style="stop-color:#e88353;stop-opacity:1;" offset="0.90625"/><stop style="stop-color:#e78252;stop-opacity:1;" offset="0.921875"/><stop style="stop-color:#e78252;stop-opacity:1;" offset="0.9375"/><stop style="stop-color:#e78151;stop-opacity:1;" offset="0.953125"/><stop style="stop-color:#e78150;stop-opacity:1;" offset="0.96875"/><stop style="stop-color:#e68150;stop-opacity:1;" offset="0.984375"/><stop style="stop-color:#e6804f;stop-opacity:1;" offset="1"/></linearGradient><clipPath id="e6d593c021"><path d="M 114.835938 115.46875 L 192.835938 115.46875 L 192.835938 193.46875 L 114.835938 193.46875 Z M 114.835938 115.46875 "/></clipPath><clipPath id="a71fa1d6ba"><path d="M 129.832031 130.464844 L 192.832031 130.464844 L 192.832031 193.464844 L 129.832031 193.464844 Z M 129.832031 130.464844 "/></clipPath><clipPath id="37a0a510ec"><path d="M 114.835938 192 L 192.835938 192 L 192.835938 270 L 114.835938 270 Z M 114.835938 192 "/></clipPath><clipPath id="e4bd1e7fb5"><path d="M 129.832031 192 L 192.832031 192 L 192.832031 255 L 129.832031 255 Z M 129.832031 192 "/></clipPath><clipPath id="3b11991c5a"><path d="M 191.15625 115.46875 L 269.15625 115.46875 L 269.15625 193.46875 L 191.15625 193.46875 Z M 191.15625 115.46875 "/></clipPath><clipPath id="da5f88f3b5"><path d="M 191.15625 130.464844 L 254.15625 130.464844 L 254.15625 193.464844 L 191.15625 193.464844 Z M 191.15625 130.464844 "/></clipPath><clipPath id="6e7c31269d"><path d="M 189.640625 189.640625 L 334.390625 189.640625 L 334.390625 334.390625 L 189.640625 334.390625 Z M 189.640625 189.640625 "/></clipPath></defs><g id="9d7dd8d771"><g clip-rule="nonzero" clip-path="url(#67bd712e29)"><g clip-rule="nonzero" clip-path="url(#3f15606cb0)"><path style="fill:none;stroke-width:118;stroke-linecap:butt;stroke-linejoin:miter;stroke:url(#99a9c6aa32);stroke-miterlimit:4;" d="M 189.794406 -0.00247489 C 84.976689 -0.00247489 -0.00248449 84.976699 -0.00248449 189.794415 C -0.00248449 294.61734 84.976689 379.591305 189.794406 379.591305 C 294.61733 379.591305 379.591296 294.61734 379.591296 189.794415 C 379.591296 84.976699 294.61733 -0.00247489 189.794406 -0.00247489 Z M 189.794406 -0.00247489 " transform="matrix(0.75,0,0,0.75,49.650301,49.650294)"/></g></g><g clip-rule="nonzero" clip-path="url(#e6d593c021)"><path style=" stroke:none;fill-rule:nonzero;fill:#2a6d71;fill-opacity:1;" d="M 138.15625 193.46875 C 138.15625 163.296875 162.664062 138.789062 192.835938 138.789062 L 192.835938 115.46875 C 149.75 115.46875 114.835938 150.382812 114.835938 193.46875 Z M 138.15625 193.46875 "/></g><g clip-rule="nonzero" clip-path="url(#a71fa1d6ba)"><path style=" stroke:none;fill-rule:nonzero;fill:#2a6d71;fill-opacity:1;" d="M 148.667969 193.464844 C 148.667969 169.09375 168.460938 149.300781 192.832031 149.300781 L 192.832031 130.464844 C 158.035156 130.464844 129.832031 158.667969 129.832031 193.464844 Z M 148.667969 193.464844 "/></g><g clip-rule="nonzero" clip-path="url(#37a0a510ec)"><path style=" stroke:none;fill-rule:nonzero;fill:#2a6d71;fill-opacity:1;" d="M 192.835938 246.679688 C 162.664062 246.679688 138.15625 222.171875 138.15625 192 L 114.835938 192 C 114.835938 235.085938 149.75 270 192.835938 270 Z M 192.835938 246.679688 "/></g><g clip-rule="nonzero" clip-path="url(#e4bd1e7fb5)"><path style=" stroke:none;fill-rule:nonzero;fill:#2a6d71;fill-opacity:1;" d="M 192.832031 236.164062 C 168.460938 236.164062 148.667969 216.371094 148.667969 192 L 129.832031 192 C 129.832031 226.800781 158.035156 255 192.832031 255 Z M 192.832031 236.164062 "/></g><g clip-rule="nonzero" clip-path="url(#3b11991c5a)"><path style=" stroke:none;fill-rule:nonzero;fill:#2a6d71;fill-opacity:1;" d="M 191.15625 138.789062 C 221.328125 138.789062 245.835938 163.296875 245.835938 193.46875 L 269.15625 193.46875 C 269.15625 150.382812 234.242188 115.46875 191.15625 115.46875 Z M 191.15625 138.789062 "/></g><g clip-rule="nonzero" clip-path="url(#da5f88f3b5)"><path style=" stroke:none;fill-rule:nonzero;fill:#2a6d71;fill-opacity:1;" d="M 191.15625 149.300781 C 215.527344 149.300781 235.320312 169.09375 235.320312 193.464844 L 254.15625 193.464844 C 254.15625 158.667969 225.957031 130.464844 191.15625 130.464844 Z M 191.15625 149.300781 "/></g><g clip-rule="nonzero" clip-path="url(#6e7c31269d)"><path style=" stroke:none;fill-rule:nonzero;fill:#cf6d32;fill-opacity:1;" d="M 291.078125 189.640625 C 291.078125 245.613281 245.613281 291.078125 189.640625 291.078125 L 189.640625 334.34375 C 269.566406 334.34375 334.34375 269.566406 334.34375 189.640625 Z M 291.078125 189.640625 "/></g></g></svg>